<svg id="Layer_1" data-name="Layer 1" xmlns="http://www.w3.org/2000/svg" viewBox="0 0 826.18 258.39"><defs><style>.cls-1{fill:#fc833a;}.cls-2{fill:#fcd0a1;}.cls-3{fill:#fcb673;}.cls-4{fill:#e3673e;}.cls-5{fill:#fda053;}.cls-6{fill:#e35e24;}.cls-7{fill:#851c06;}.cls-8{fill:#c54819;}.cls-9{fill:#210d16;}.cls-10{font-size:113px;font-family:Poppins-Light, Poppins;font-weight:300;}</style></defs><path class="cls-1" d="M97.57,525c-4.88-19.72,0-38.87,3.44-58.1,4.15-7.4,6.43-15.42,7.94-23.7a96.93,96.93,0,0,0,9.94-20.86l15.22-17.54,15.47-8.22c4.24.14,8-1.45,11.61-3.36,14-4.59,28.11-8.41,42.92-9,8,2.69,16.46,4.47,23.91,8.24,24.4,12.34,43.25,31.64,61.22,51.65,7.51,8.36,14.71,17.35,19,28,1.51,3.74,5.59,7.72,1.42,12.32-11.47-6.24-22.21-4.12-31.52,4-5.81,5.08-10.77,11.27-15.45,17.46-5.11,6.76-11.25,10.56-19.84,9.92-14.19-8.88-27.51-6.91-38.27,5.66-17.25,6.45-31.83-.15-45.94-9.3a35.78,35.78,0,0,0-6.15-2.93c-11.2-4.55-22.63-4.58-34.18-1.62C108.46,509.87,103.4,517.87,97.57,525Zm139.78-77.83c.87-4.81,5-10.4-.52-14.1-4.21-2.8-10-2.36-14.76,0-4.44,2.23-4.57,6.74-3.9,11,.84,5.38,4.69,7.25,9.72,7.32-3.46,18.51,3.82,34.09,19,39.5,6.44,2.29,13,3,19-2.51s5.63-11.76,3.38-18.59C265.28,457.66,251.42,447.81,237.35,447.12Zm-56.5,8.09c2.28-4.68,9.6-8.2,3.74-14.79-4.2-4.73-8.79-8.38-15.81-5-8,3.87-4.89,9.82-3.36,15.57-14.83,4.61-22.27,16.3-27,29.74-3.18,9.13,3.31,19,12.72,21.94,12.36,3.87,25.63-3.75,29.55-16.85C183.8,475.63,183.32,465.43,180.85,455.21Z" transform="translate(-95.51 -340.97)"/><path class="cls-2" d="M242.85,515.76c8.59.64,14.73-3.16,19.84-9.92,4.68-6.19,9.64-12.38,15.45-17.46,9.31-8.14,20.05-10.26,31.52-4,1.49,2.18,3.75,2.13,6,2.11,4.91,15.31-.54,29.46-5.62,43.35-2.72,7.42-5.18,15.48-12,20.75l-2,2.2.16-.09c-7,1.85-12.23,7.07-17.6,11.2-18.18,14-38.86,20.45-61.11,21.73a98.15,98.15,0,0,1-55.71-13.74c-24.53-14.38-42.69-33.6-43.44-64.3,11.55-3,23-2.93,34.18,1.62a35.78,35.78,0,0,1,6.15,2.93c14.11,9.15,28.69,15.75,45.94,9.3.09,4-2,8.33,1.43,12q2.66,3.51,5.33,7c-2.35,4.52-11.4.81-10.89,8.85-7.08-2.27-10.2-10-17.34-12.3,3.73,10.16,11.82,15.69,21.23,19.85,3.75,7.29,15.12,11.3,25.55,9,11.66-2.55,18.05-9.17,18.86-19.52,3.25-4.77,9.13-7.82,10.54-15.38-6.29,1.33-7.75,7-11.93,8.9L243,534.55l.51-3.4C247.4,525.85,243.6,520.87,242.85,515.76Z" transform="translate(-95.51 -340.97)"/><path class="cls-3" d="M118.31,507.57c.75,30.7,18.91,49.92,43.44,64.3a98.15,98.15,0,0,0,55.71,13.74c22.25-1.28,42.93-7.76,61.11-21.73,5.37-4.13,10.56-9.35,17.6-11.2-18.78,26.57-42.62,45.34-76.49,46.56-35.86,1.31-68.41-9.11-97-31C108.51,557.28,99.52,543.1,97.57,525,103.4,517.87,108.46,509.87,118.31,507.57Z" transform="translate(-95.51 -340.97)"/><path class="cls-4" d="M235.05,384.34c5.27-13.32,12.07-25.81,21.53-36.61,8.51-9.7,14.67-9.09,19.26,2.61a165.81,165.81,0,0,1,10.74,78.92L276.2,417.54a192.36,192.36,0,0,0-6-58.58c-2.28-8.67-5.9-9.33-11.57-2.4-7.83,9.59-13.16,20.67-17.7,32.13A6.47,6.47,0,0,1,235.05,384.34Z" transform="translate(-95.51 -340.97)"/><path class="cls-5" d="M235.05,384.34a6.47,6.47,0,0,0,5.86,4.35,22.71,22.71,0,0,0,10.21,2.5,37.32,37.32,0,0,0,17.23,15.32c1,4.86,5.27,7.33,7.85,11l10.38,11.72c13,17.39,25.82,34.86,29.09,57.21-2.26,0-4.52.07-6-2.11,4.17-4.6.09-8.58-1.42-12.32-4.29-10.62-11.49-19.61-19-28-18-20-36.82-39.31-61.22-51.65-7.45-3.77-15.91-5.55-23.91-8.24,6.88-2.26,13.73-1.17,20.63,0C228.13,384.81,231.6,385.82,235.05,384.34Z" transform="translate(-95.51 -340.97)"/><path class="cls-6" d="M109,443.15c-1.51,8.28-3.79,16.3-7.94,23.7-2.73-4-2.33-8.75-2.72-13.16-2.4-27.18-2.72-54.34,2.59-81.26,1.22-6.21,2.12-12.84,7.75-17.18-1.17,10.51-4.16,21-.1,31.55-.14,3.29-.28,6.59-.41,9.88-1.74,1.8-1.72,3.66-.22,5.57Z" transform="translate(-95.51 -340.97)"/><path class="cls-4" d="M108.53,386.8c-4.06-10.53-1.07-21,.1-31.55,6.87-6.53,12.66-1.53,17.85,2.31,10.69,7.91,18.51,18.58,26.09,29.36,2.17,3.08,3.67,7,8.62,6.25-3.64,1.91-7.37,3.5-11.61,3.36-6.28-10.44-12.82-20.71-22.77-28.14-6.79-5.07-10.19-3.8-14.16,3.84C110.23,376.9,111.87,382.52,108.53,386.8Z" transform="translate(-95.51 -340.97)"/><path class="cls-3" d="M296,552.77l2-2.2Z" transform="translate(-95.51 -340.97)"/><path class="cls-6" d="M180.85,455.21c2.47,10.22,3,20.42-.12,30.64-3.92,13.1-17.19,20.72-29.55,16.85-9.41-2.94-15.9-12.81-12.72-21.94,4.69-13.44,12.13-25.13,27-29.73ZM169,472.83c.34-4.67-2.07-8.12-5.86-7.25-4.41,1-9.55,2.46-6.92,9.21-2.41,4.4-3.16,8.55,1.84,11.77,4.07,2.62,8.12,2.25,11.63-.83C174.76,481.3,171.52,477,169,472.83Z" transform="translate(-95.51 -340.97)"/><path class="cls-2" d="M108.53,386.8c3.34-4.28,1.7-9.9,4.12-14.57,4-7.64,7.37-8.91,14.16-3.84,9.95,7.43,16.49,17.7,22.77,28.14l-15.47,8.22c-2.46-3.77-4.91-7.54-7.39-11.29-1.71-2.6-3.09-6.88-6.79-5.44-3.54,1.38-4.07,6-3.19,9.34,2.13,8.24,1.29,16.64,2.15,24.93A96.93,96.93,0,0,1,109,443.15l-1-40.9c.07-1.85.14-3.71.22-5.57C108.25,393.39,108.39,390.09,108.53,386.8Z" transform="translate(-95.51 -340.97)"/><path class="cls-6" d="M237.35,447.12c14.07.69,27.93,10.54,31.91,22.63,2.25,6.83,2.63,13-3.38,18.59s-12.52,4.8-19,2.51c-15.21-5.41-22.49-21-19-39.5ZM237,470.84c0,5.24,2.5,8.71,7.7,9.31,4.15.48,7.43-1.57,9.27-5.48,2.37-5.05-1-7.68-4.44-10.23.46-1.38,3.3-2,2-3.7-3.44-4.56-8.38-5.44-12.45-1.78C235.89,461.79,230,465.63,237,470.84Z" transform="translate(-95.51 -340.97)"/><path class="cls-7" d="M206,533.38c-3.42-3.63-1.34-7.92-1.43-12,10.76-12.57,24.08-14.54,38.27-5.66.75,5.11,4.55,10.09.67,15.4-.24-4.3-.2-9.08-6.71-7.5-5.58,1.35-8.29,4.91-6.39,10.78a63.59,63.59,0,0,0,3.22,7L229.7,545l-3.92.09-3.93-1.66c.05-5,1.44-10.94-4.25-13.49C213.6,528.19,208.73,528.38,206,533.38Z" transform="translate(-95.51 -340.97)"/><path class="cls-5" d="M180.85,455.21,165.42,451c-1.53-5.76-4.62-11.71,3.36-15.58,7-3.41,11.61.24,15.81,5C190.45,447,183.13,450.53,180.85,455.21Z" transform="translate(-95.51 -340.97)"/><path class="cls-5" d="M237.35,447.12l-9.46,4.23c-5-.07-8.88-1.94-9.72-7.32-.67-4.25-.54-8.76,3.9-11,4.76-2.38,10.55-2.82,14.76,0C242.38,436.72,238.22,442.31,237.35,447.12Z" transform="translate(-95.51 -340.97)"/><path class="cls-3" d="M118.89,422.29c-.86-8.29,0-16.69-2.15-24.93-.88-3.39-.35-8,3.19-9.34,3.7-1.44,5.08,2.84,6.79,5.44,2.48,3.75,4.93,7.52,7.39,11.29Z" transform="translate(-95.51 -340.97)"/><path class="cls-3" d="M248.75,546.28c-.81,10.35-7.2,17-18.86,19.52-10.43,2.29-21.8-1.72-25.55-9A130.22,130.22,0,0,0,248.75,546.28Z" transform="translate(-95.51 -340.97)"/><path class="cls-8" d="M248.75,546.28a130.22,130.22,0,0,1-44.41,10.51c-9.41-4.16-17.5-9.69-21.23-19.85,7.14,2.34,10.26,10,17.34,12.3,10.88,4.41,21.14,2.75,25.33-4.11l3.92-.09c7.45,3.51,12.71-.35,17.66-5.24,4.18-1.93,5.64-7.57,11.93-8.9C257.88,538.46,252,541.51,248.75,546.28Z" transform="translate(-95.51 -340.97)"/><path class="cls-3" d="M225.78,545.13c-4.19,6.86-14.45,8.52-25.33,4.11-.51-8,8.54-4.33,10.89-8.85,3.52,1,6.61,3.4,10.51,3.08Z" transform="translate(-95.51 -340.97)"/><path class="cls-9" d="M233.64,541.48a63.59,63.59,0,0,1-3.22-7c-1.9-5.87.81-9.43,6.39-10.78,6.51-1.58,6.47,3.2,6.71,7.5l-.51,3.39C240,537,238,540.87,233.64,541.48Z" transform="translate(-95.51 -340.97)"/><path class="cls-9" d="M221.85,543.47c-3.9.32-7-2.11-10.51-3.08q-2.67-3.51-5.33-7c2.72-5,7.59-5.19,11.59-3.4C223.29,532.53,221.9,538.47,221.85,543.47Z" transform="translate(-95.51 -340.97)"/><path class="cls-3" d="M233.64,541.48c4.38-.61,6.36-4.47,9.37-6.93l4.35,5.25c-5,4.89-10.21,8.75-17.66,5.24Z" transform="translate(-95.51 -340.97)"/><path class="cls-2" d="M251.12,391.19a22.71,22.71,0,0,1-10.21-2.5c4.54-11.46,9.87-22.54,17.7-32.13,5.67-6.93,9.29-6.27,11.57,2.4a192.36,192.36,0,0,1,6,58.58c-2.58-3.7-6.89-6.17-7.85-11,.1-4.82,1.43-10,0-14.36-2.2-6.69,1.74-18.58-6-19.18C255.62,372.44,253.39,383.89,251.12,391.19Z" transform="translate(-95.51 -340.97)"/><path class="cls-3" d="M251.12,391.19c2.27-7.3,4.5-18.75,11.24-18.22,7.74.6,3.8,12.49,6,19.18,1.42,4.32.09,9.54,0,14.36A37.32,37.32,0,0,1,251.12,391.19Z" transform="translate(-95.51 -340.97)"/><path class="cls-4" d="M108.12,396.68c-.08,1.86-.15,3.72-.22,5.57C106.4,400.34,106.38,398.48,108.12,396.68Z" transform="translate(-95.51 -340.97)"/><path class="cls-7" d="M169,472.83c2.49,4.19,5.73,8.47.69,12.9-3.51,3.08-7.56,3.45-11.63.83-5-3.22-4.25-7.37-1.84-11.77a2,2,0,0,0,1.31-1.17c3.78-1.72,7.75-.78,11.65-.84Z" transform="translate(-95.51 -340.97)"/><path class="cls-8" d="M157.56,473.62a2,2,0,0,1-1.31,1.17c-2.63-6.75,2.51-8.2,6.92-9.21,3.79-.87,6.2,2.58,5.86,7.25l.18-.05C165.1,470,161.11,468.78,157.56,473.62Z" transform="translate(-95.51 -340.97)"/><path class="cls-7" d="M249.5,464.44c3.47,2.55,6.81,5.18,4.44,10.23-1.84,3.91-5.12,6-9.27,5.48-5.2-.6-7.71-4.07-7.7-9.31C239.46,465.4,244.14,464.27,249.5,464.44Z" transform="translate(-95.51 -340.97)"/><path class="cls-8" d="M249.5,464.44c-5.36-.17-10,1-12.53,6.4-6.95-5.21-1.08-9,2.07-11.88,4.07-3.66,9-2.78,12.45,1.78C252.8,462.46,250,463.06,249.5,464.44Z" transform="translate(-95.51 -340.97)"/><path class="cls-6" d="M157.56,473.62c3.55-4.84,7.54-3.67,11.65-.84C165.31,472.84,161.34,471.9,157.56,473.62Z" transform="translate(-95.51 -340.97)"/><text class="cls-10" transform="translate(272.6 170.33)">PETSCOUT</text></svg>