<?xml version="1.0" encoding="utf-8"?>
<!-- Generator: Adobe Illustrator 25.2.1, SVG Export Plug-In . SVG Version: 6.00 Build 0)  -->
<svg version="1.1" id="Layer_1" xmlns="http://www.w3.org/2000/svg" xmlns:xlink="http://www.w3.org/1999/xlink" x="0px" y="0px"
	 viewBox="0 0 222.1 258.4" style="enable-background:new 0 0 222.1 258.4;" xml:space="preserve">
<style type="text/css">
	.st0{fill:#FC833A;}
	.st1{fill:#FCD0A1;}
	.st2{fill:#FCB673;}
	.st3{fill:#E3673E;}
	.st4{fill:#FDA053;}
	.st5{fill:#E35E24;}
	.st6{fill:#851C06;}
	.st7{fill:#C54819;}
	.st8{fill:#210D16;}
</style>
<path class="st0" d="M2.1,184c-4.9-19.7,0-38.9,3.4-58.1c4.2-7.4,6.4-15.4,7.9-23.7c4.1-6.5,7.5-13.5,9.9-20.9l15.2-17.5l15.5-8.2
	c4.2,0.1,8-1.5,11.6-3.4c14-4.6,28.1-8.4,42.9-9c8,2.7,16.5,4.5,23.9,8.2c24.4,12.3,43.2,31.6,61.2,51.6c7.5,8.4,14.7,17.4,19,28
	c1.5,3.7,5.6,7.7,1.4,12.3c-11.5-6.2-22.2-4.1-31.5,4c-5.8,5.1-10.8,11.3-15.5,17.5c-5.1,6.8-11.2,10.6-19.8,9.9
	c-14.2-8.9-27.5-6.9-38.3,5.7c-17.2,6.5-31.8-0.2-45.9-9.3c-2-1.2-4-2.2-6.1-2.9c-11.2-4.5-22.6-4.6-34.2-1.6
	C12.9,168.9,7.9,176.9,2.1,184z M141.8,106.2c0.9-4.8,5-10.4-0.5-14.1c-4.2-2.8-10-2.4-14.8,0c-4.4,2.2-4.6,6.7-3.9,11
	c0.8,5.4,4.7,7.2,9.7,7.3c-3.5,18.5,3.8,34.1,19,39.5c6.4,2.3,13,3,19-2.5s5.6-11.8,3.4-18.6C169.8,116.7,155.9,106.8,141.8,106.2
	L141.8,106.2z M85.3,114.3c2.3-4.7,9.6-8.2,3.7-14.8c-4.2-4.7-8.8-8.4-15.8-5c-8,3.9-4.9,9.8-3.4,15.6c-14.8,4.6-22.3,16.3-27,29.7
	c-3.2,9.1,3.3,19,12.7,21.9c12.4,3.9,25.6-3.8,29.6-16.9C88.3,134.7,87.8,124.5,85.3,114.3L85.3,114.3z"/>
<path class="st1" d="M147.3,174.8c8.6,0.6,14.7-3.2,19.8-9.9c4.7-6.2,9.6-12.4,15.5-17.5c9.3-8.1,20-10.3,31.5-4
	c1.5,2.2,3.8,2.1,6,2.1c4.9,15.3-0.5,29.5-5.6,43.3c-2.7,7.4-5.2,15.5-12,20.8l-2,2.2l0.2-0.1c-7,1.8-12.2,7.1-17.6,11.2
	c-18.2,14-38.9,20.5-61.1,21.7c-19.5,1.1-38.9-3.7-55.7-13.7c-24.5-14.4-42.7-33.6-43.4-64.3c11.6-3,23-2.9,34.2,1.6
	c2.1,0.8,4.2,1.8,6.1,2.9c14.1,9.2,28.7,15.8,45.9,9.3c0.1,4-2,8.3,1.4,12c1.8,2.3,3.6,4.7,5.3,7c-2.4,4.5-11.4,0.8-10.9,8.8
	c-7.1-2.3-10.2-10-17.3-12.3c3.7,10.2,11.8,15.7,21.2,19.8c3.8,7.3,15.1,11.3,25.5,9c11.7-2.5,18.1-9.2,18.9-19.5
	c3.2-4.8,9.1-7.8,10.5-15.4c-6.3,1.3-7.8,7-11.9,8.9l-4.4-5.3l0.5-3.4C151.9,184.9,148.1,179.9,147.3,174.8z"/>
<path class="st2" d="M22.8,166.6c0.8,30.7,18.9,49.9,43.4,64.3c16.8,10,36.2,14.8,55.7,13.7c22.2-1.3,42.9-7.8,61.1-21.7
	c5.4-4.1,10.6-9.3,17.6-11.2c-18.8,26.6-42.6,45.3-76.5,46.6c-35.9,1.3-68.4-9.1-97-31C13,216.3,4,202.1,2.1,184
	C7.9,176.9,12.9,168.9,22.8,166.6z"/>
<path class="st3" d="M139.5,43.4c5.3-13.3,12.1-25.8,21.5-36.6c8.5-9.7,14.7-9.1,19.3,2.6c9.9,25,13.6,52.1,10.7,78.9l-10.4-11.7
	c1-19.7-1-39.5-6-58.6c-2.3-8.7-5.9-9.3-11.6-2.4c-7.8,9.6-13.2,20.7-17.7,32.1C142.7,47.6,140.4,45.9,139.5,43.4z"/>
<path class="st4" d="M139.5,43.4c0.9,2.5,3.2,4.2,5.9,4.4c3.2,1.6,6.7,2.5,10.2,2.5c4,6.8,10,12.2,17.2,15.3c1,4.9,5.3,7.3,7.9,11
	l10.4,11.7c13,17.4,25.8,34.9,29.1,57.2c-2.3,0-4.5,0.1-6-2.1c4.2-4.6,0.1-8.6-1.4-12.3c-4.3-10.6-11.5-19.6-19-28
	c-18-20-36.8-39.3-61.2-51.6c-7.4-3.8-15.9-5.5-23.9-8.2c6.9-2.3,13.7-1.2,20.6,0C132.6,43.8,136.1,44.9,139.5,43.4z"/>
<path class="st5" d="M13.5,102.2c-1.5,8.3-3.8,16.3-7.9,23.7c-2.7-4-2.3-8.8-2.7-13.2C0.4,85.5,0.1,58.4,5.4,31.5
	c1.2-6.2,2.1-12.8,7.8-17.2C12,24.8,9,35.3,13.1,45.8c-0.1,3.3-0.3,6.6-0.4,9.9c-1.7,1.8-1.7,3.7-0.2,5.6L13.5,102.2z"/>
<path class="st3" d="M13,45.8c-4.1-10.5-1.1-21,0.1-31.5C20,7.8,25.8,12.8,31,16.6c10.7,7.9,18.5,18.6,26.1,29.4
	c2.2,3.1,3.7,7,8.6,6.2c-3.6,1.9-7.4,3.5-11.6,3.4c-6.3-10.4-12.8-20.7-22.8-28.1c-6.8-5.1-10.2-3.8-14.2,3.8
	C14.7,35.9,16.4,41.5,13,45.8z"/>
<path class="st2" d="M200.5,211.8l2-2.2L200.5,211.8z"/>
<path class="st5" d="M85.3,114.2c2.5,10.2,3,20.4-0.1,30.6C81.3,158,68,165.6,55.7,161.7c-9.4-2.9-15.9-12.8-12.7-21.9
	c4.7-13.4,12.1-25.1,27-29.7L85.3,114.2z M73.5,131.9c0.3-4.7-2.1-8.1-5.9-7.2c-4.4,1-9.6,2.5-6.9,9.2c-2.4,4.4-3.2,8.5,1.8,11.8
	c4.1,2.6,8.1,2.2,11.6-0.8C79.2,140.3,76,136,73.5,131.9z"/>
<path class="st1" d="M13,45.8c3.3-4.3,1.7-9.9,4.1-14.6c4-7.6,7.4-8.9,14.2-3.8c9.9,7.4,16.5,17.7,22.8,28.1l-15.5,8.2
	c-2.5-3.8-4.9-7.5-7.4-11.3c-1.7-2.6-3.1-6.9-6.8-5.4c-3.5,1.4-4.1,6-3.2,9.3c2.1,8.2,1.3,16.6,2.2,24.9c-2.5,7.3-5.8,14.3-9.9,20.9
	l-1-40.9c0.1-1.9,0.1-3.7,0.2-5.6C12.7,52.4,12.9,49.1,13,45.8z"/>
<path class="st5" d="M141.8,106.1c14.1,0.7,27.9,10.5,31.9,22.6c2.2,6.8,2.6,13-3.4,18.6s-12.5,4.8-19,2.5
	c-15.2-5.4-22.5-21-19-39.5L141.8,106.1z M141.5,129.9c0,5.2,2.5,8.7,7.7,9.3c4.1,0.5,7.4-1.6,9.3-5.5c2.4-5-1-7.7-4.4-10.2
	c0.5-1.4,3.3-2,2-3.7c-3.4-4.6-8.4-5.4-12.4-1.8C140.4,120.8,134.5,124.7,141.5,129.9z"/>
<path class="st6" d="M110.5,192.4c-3.4-3.6-1.3-7.9-1.4-12c10.8-12.6,24.1-14.5,38.3-5.7c0.8,5.1,4.5,10.1,0.7,15.4
	c-0.2-4.3-0.2-9.1-6.7-7.5c-5.6,1.3-8.3,4.9-6.4,10.8c0.9,2.4,2,4.7,3.2,7l-3.9,3.6l-3.9,0.1l-3.9-1.7c0.1-5,1.4-10.9-4.2-13.5
	C118.1,187.2,113.2,187.4,110.5,192.4z"/>
<path class="st4" d="M85.3,114.2L69.9,110c-1.5-5.8-4.6-11.7,3.4-15.6c7-3.4,11.6,0.2,15.8,5C94.9,106,87.6,109.6,85.3,114.2z"/>
<path class="st4" d="M141.8,106.1l-9.5,4.2c-5-0.1-8.9-1.9-9.7-7.3c-0.7-4.2-0.5-8.8,3.9-11c4.8-2.4,10.5-2.8,14.8,0
	C146.9,95.8,142.7,101.3,141.8,106.1z"/>
<path class="st2" d="M23.4,81.3c-0.9-8.3,0-16.7-2.2-24.9c-0.9-3.4-0.3-8,3.2-9.3c3.7-1.4,5.1,2.8,6.8,5.4c2.5,3.8,4.9,7.5,7.4,11.3
	L23.4,81.3z"/>
<path class="st2" d="M153.2,205.3c-0.8,10.3-7.2,17-18.9,19.5c-10.4,2.3-21.8-1.7-25.6-9C124.1,215,139.2,211.4,153.2,205.3z"/>
<path class="st7" d="M153.2,205.3c-14.1,6.1-29.1,9.6-44.4,10.5c-9.4-4.2-17.5-9.7-21.2-19.8c7.1,2.3,10.3,10,17.3,12.3
	c10.9,4.4,21.1,2.8,25.3-4.1l3.9-0.1c7.4,3.5,12.7-0.3,17.7-5.2c4.2-1.9,5.6-7.6,11.9-8.9C162.4,197.5,156.5,200.5,153.2,205.3z"/>
<path class="st2" d="M130.3,204.2c-4.2,6.9-14.4,8.5-25.3,4.1c-0.5-8,8.5-4.3,10.9-8.8c3.5,1,6.6,3.4,10.5,3.1L130.3,204.2z"/>
<path class="st8" d="M138.1,200.5c-1.2-2.3-2.3-4.6-3.2-7c-1.9-5.9,0.8-9.4,6.4-10.8c6.5-1.6,6.5,3.2,6.7,7.5l-0.5,3.4
	C144.5,196,142.5,199.9,138.1,200.5z"/>
<path class="st8" d="M126.3,202.5c-3.9,0.3-7-2.1-10.5-3.1c-1.8-2.3-3.6-4.7-5.3-7c2.7-5,7.6-5.2,11.6-3.4
	C127.8,191.6,126.4,197.5,126.3,202.5z"/>
<path class="st2" d="M138.1,200.5c4.4-0.6,6.4-4.5,9.4-6.9l4.4,5.2c-5,4.9-10.2,8.8-17.7,5.2L138.1,200.5z"/>
<path class="st1" d="M155.6,50.2c-3.6,0-7-0.9-10.2-2.5c4.5-11.5,9.9-22.5,17.7-32.1c5.7-6.9,9.3-6.3,11.6,2.4c5,19.1,7,38.9,6,58.6
	c-2.6-3.7-6.9-6.2-7.9-11c0.1-4.8,1.4-10,0-14.4c-2.2-6.7,1.7-18.6-6-19.2C160.1,31.5,157.9,42.9,155.6,50.2z"/>
<path class="st2" d="M155.6,50.2c2.3-7.3,4.5-18.8,11.2-18.2c7.7,0.6,3.8,12.5,6,19.2c1.4,4.3,0.1,9.5,0,14.4
	C165.6,62.4,159.6,57,155.6,50.2z"/>
<path class="st3" d="M12.6,55.7c-0.1,1.9-0.2,3.7-0.2,5.6C10.9,59.4,10.9,57.5,12.6,55.7z"/>
<path class="st6" d="M73.5,131.9c2.5,4.2,5.7,8.5,0.7,12.9c-3.5,3.1-7.6,3.5-11.6,0.8c-5-3.2-4.2-7.4-1.8-11.8
	c0.6-0.2,1.1-0.6,1.3-1.2c3.8-1.7,7.8-0.8,11.6-0.8L73.5,131.9z"/>
<path class="st7" d="M62,132.6c-0.2,0.6-0.7,1-1.3,1.2c-2.6-6.8,2.5-8.2,6.9-9.2c3.8-0.9,6.2,2.6,5.9,7.2l0.2,0
	C69.6,129,65.6,127.8,62,132.6z"/>
<path class="st6" d="M154,123.5c3.5,2.5,6.8,5.2,4.4,10.2c-1.8,3.9-5.1,6-9.3,5.5c-5.2-0.6-7.7-4.1-7.7-9.3
	C144,124.4,148.6,123.3,154,123.5z"/>
<path class="st7" d="M154,123.5c-5.4-0.2-10,1-12.5,6.4c-6.9-5.2-1.1-9,2.1-11.9c4.1-3.7,9-2.8,12.5,1.8
	C157.3,121.5,154.5,122.1,154,123.5z"/>
<path class="st5" d="M62,132.6c3.6-4.8,7.5-3.7,11.6-0.8C69.8,131.9,65.8,130.9,62,132.6z"/>
</svg>
